{"title":"Rabbit Hole 2010 DVD9rip English Klam","uid":6603606,"size":1433343696,"categoryP":"video","categoryS":"movies","magnet":"?xt=urn:btih:bb998f53d1ddb0afb41ff935098e8dace889623d&amp;dn=Rabbit+Hole+2010+DVD9rip+English+Klam&amp;tr=udp%3A%2F%2Ftracker.openbittorrent.com%3A80&amp;tr=udp%3A%2F%2Fopen.demonii.com%3A1337&amp;tr=udp%3A%2F%2Ftracker.coppersurfer.tk%3A6969&amp;tr=udp%3A%2F%2Fexodus.desync.com%3A6969","seeders":0,"leechers":1,"uploader":"Klambake","files":-1,"time":1313318558,"description":"With: Nicole Kidman, Aaron Eckhart and Dianne Wiest\n\nHet leven van een gelukkig echtpaar wordt verwoest als hun 4-jarig zoontje na een tragisch verkeersongeval sterft. Compleet verscheurd door verdriet gaan ze op zoek naar verlossing om hun levensgeluk te hervinden.\n\nLife for a happy couple is turned upside down after their young son dies in an accident. Based on a play by David Lindsay-Abaire. \n\n------------------ Dutch Friends ------------------\nYou can find my Friends at: http://www.Film-Test.nl \n------ They got my dutchs subs ---- and more ------\n\nGeneral:\n\nComplete name                    : Rabbit Hole\\Rabbit Hole.avi\nFormat                           : AVI\nFormat/Info                      : Audio Video Interleave\nFile size                        : 1.33 GiB\nDuration                         : 1h 27mn\nOverall bit rate                 : 2 188 Kbps\n\nVideo:\n\nFormat                           : MPEG-4 Visual\nFormat profile                   : Simple@L3\nFormat settings, BVOP            : No\nFormat settings, QPel            : No\nFormat settings, GMC             : No warppoints\nFormat settings, Matrix          : Default (H.263)\nCodec ID                         : XVID\nCodec ID/Hint                    : XviD\nDuration                         : 1h 27mn\nBit rate                         : 1 729 Kbps\nWidth                            : 652 pixels\nHeight                           : 352 pixels\nDisplay aspect ratio             : 1.852\nFrame rate                       : 25.000 fps\nColor space                      : YUV\nChroma subsampling               : 4:2:0\nBit depth                        : 8 bits\nScan type                        : Progressive\nBits/(Pixel*Frame)               : 0.301\nStream size                      : 1.05 GiB (79%)\nWriting library                  : XviD 1.1.2 (UTC 2006-11-01)\n\nAudio:\n\nFormat                           : AC-3\nFormat/Info                      : Audio Coding 3\nMode extension                   : CM (complete main)\nCodec ID                         : 2000\nDuration                         : 1h 27mn\nBit rate mode                    : Constant\nBit rate                         : 448 Kbps\nChannel(s)                       : 6 channels\nChannel positions                : Front: L C R, Side: L R, LFE\nSampling rate                    : 48.0 KHz\nBit depth                        : 16 bits\nStream size                      : 280 MiB (20%)\nAlignment                        : Aligned on interleaves\nInterleave, duration             : 32 ms (0.80 video frame)\nInterleave, preload duration     : 32 ms\n","torrent":{"xt":"urn:btih:bb998f53d1ddb0afb41ff935098e8dace889623d","amp;dn":"Rabbit+Hole+2010+DVD9rip+English+Klam","amp;tr":["udp%3A%2F%2Ftracker.openbittorrent.com%3A80","udp%3A%2F%2Fopen.demonii.com%3A1337","udp%3A%2F%2Ftracker.coppersurfer.tk%3A6969","udp%3A%2F%2Fexodus.desync.com%3A6969"],"infoHash":"bb998f53d1ddb0afb41ff935098e8dace889623d","infoHashBuffer":{"type":"Buffer","data":[187,153,143,83,209,221,176,175,180,31,249,53,9,142,141,172,232,137,98,61]},"announce":[],"urlList":[]}}